<?xml version="1.0" encoding="utf-8"?>
<!-- Generator: Adobe Illustrator 27.3.1, SVG Export Plug-In . SVG Version: 6.00 Build 0)  -->
<svg version="1.1" id="Layer_1" xmlns="http://www.w3.org/2000/svg" xmlns:xlink="http://www.w3.org/1999/xlink" x="0px" y="0px"
	 viewBox="0 0 408.5 125" style="enable-background:new 0 0 408.5 125;" xml:space="preserve">
<style type="text/css">
	.st0{fill:#FFFFFF;}
</style>
<path class="st0" d="M298.2,94.2c0.1,0.1,0.1,0.2,0.2,0.4c1.7,3.4,3.9,6.5,6.7,9.1c2.7,2.5,5.7,4.5,9.1,6c2.5,1.1,5.2,1.9,7.9,2.5
	c1.1,0.2,2.2,0.4,3.4,0.5c0.7,0.1,1.4,0.1,2.1,0.2c0.2,0,0.3,0,0.5,0c0-0.1,0-0.1-0.1-0.2c0-0.1-0.1-0.2-0.1-0.3
	c-2.9-4.8-5.7-9.7-8.6-14.5c-0.2-0.3-0.3-0.5-0.4-0.8c0.1,0,0.2,0,0.3,0.1c0.4,0.3,0.8,0.5,1.2,0.8c0.3,0.2,0.5,0.3,0.8,0.5
	c0.6,0.4,1.3,0.8,1.9,1.2c0.3,0.2,0.6,0.4,0.9,0.5c0.6,0.4,1.2,0.7,1.8,1.1c0.6,0.3,1.1,0.7,1.7,1c0.5,0.3,1.1,0.7,1.6,1
	c0.4,0.2,0.7,0.4,1.1,0.6c0.6,0.4,1.1,0.7,1.7,1.1c0.4,0.2,0.7,0.4,1.1,0.6c0.6,0.4,1.2,0.7,1.8,1.1c0.4,0.2,0.7,0.4,1.1,0.7
	c0.6,0.3,1.1,0.7,1.7,1c0.5,0.3,1,0.6,1.5,0.9c0.6,0.4,1.1,0.7,1.7,1.1c0.3,0.2,0.6,0.4,1,0.6c0.6,0.4,1.2,0.7,1.8,1.1
	c0.6,0.3,1.1,0.7,1.7,1c0.5,0.3,1,0.6,1.6,1c0.7,0.4,1.4,0.8,2,1.2c0.5,0.3,1,0.7,1.5,0.9c0.1,0,0.2,0.1,0.2,0.2
	c-0.1,0.2-0.3,0.3-0.5,0.3c-3.6,2-7.3,3.4-11.3,4.3c-1.3,0.3-2.7,0.5-4,0.7c-1,0.1-2.1,0.2-3.1,0.3c-0.1,0-0.2,0-0.2,0.1
	c-1.4,0-2.8,0-4.2,0c0-0.1-0.1-0.1-0.1-0.1c-0.3,0-0.6,0-0.9-0.1c-4.8-0.4-9.4-1.4-13.9-3.2c-3.8-1.6-7.3-3.7-10.5-6.3
	c-0.7-0.6-1.3-1.2-2-1.7c-0.1-0.1-0.3-0.2-0.4-0.3c-0.1-0.1-0.1-0.1-0.2-0.2c-0.4-0.5-0.8-0.9-1.2-1.2c-0.1,0-0.1-0.1-0.1-0.1
	c-0.3-0.5-0.7-0.8-1.1-1.3c-2.5-2.8-4.5-5.8-6.2-9.2c-1.6-3.2-2.8-6.5-3.5-9.9c-0.1-0.3-0.1-0.7-0.2-1c0.2,0,0.3,0.1,0.4,0.1
	c0.6,0.3,1.1,0.7,1.7,1c0.5,0.3,1,0.6,1.5,0.9c0.6,0.4,1.1,0.7,1.7,1.1c0.4,0.2,0.7,0.4,1.1,0.7c0.6,0.3,1.1,0.7,1.7,1
	c0.7,0.4,1.4,0.8,2,1.2c0.4,0.2,0.7,0.5,1.1,0.7C297.9,94.2,298,94.2,298.2,94.2z"/>
<path class="st0" d="M308.2,70.7c0-0.3,0-0.6,0-0.9c0.2-2.8,0.7-5.5,1.7-8.1c0.3-0.8,0.6-1.6,0.9-2.3c0.3-0.8,0.7-1.5,1.1-2.2
	c0.2-0.4,0.4-0.8,0.6-1.1c0.1-0.2,0.3-0.4,0.4-0.7c0,0,0.1,0,0.1-0.1c0.2,0,0.4,0.1,0.6,0.2c0.4,0.2,0.8,0.5,1.2,0.7
	c0.8,0.5,1.6,1,2.4,1.4c0.6,0.4,1.2,0.7,1.8,1.1c1,0.6,2,1.2,3.1,1.9c0.9,0.5,1.7,1,2.6,1.6c0.1,0.1,0.3,0.1,0.4,0.1
	c-0.1,0.2-0.2,0.5-0.4,0.7c-0.6,1.2-1.1,2.5-1.2,3.9c-0.1,0.7,0,1.4,0.3,2.1c0.1,0.1,0.2,0.3,0.2,0.4c0.7,1.2,1.4,2.4,2.1,3.7
	c0.2,0.4,0.4,0.8,0.7,1.2c0.3,0.5,0.6,1,0.9,1.5c0.2,0.4,0.4,0.8,0.7,1.2c0.3,0.5,0.5,0.9,0.8,1.4c0.2,0.4,0.4,0.7,0.6,1.1
	c0.3,0.5,0.6,1,0.9,1.5c0.3,0.6,0.7,1.2,1,1.8c1.4,2.4,2.8,4.7,4.2,7.1c0.5,0.9,1,1.7,1.5,2.6c0.4,0.6,0.7,1.2,1.1,1.8
	c0.4,0.6,0.7,1.2,1.1,1.8c0.5,0.9,1.1,1.8,1.6,2.7c0.1,0.1,0.1,0.2,0.2,0.3c0,0-0.1,0.1-0.1,0.1c-0.1-0.1-0.3-0.1-0.4-0.2
	c-0.6-0.3-1.1-0.7-1.7-1c-0.4-0.2-0.7-0.4-1.1-0.6c-0.6-0.3-1.1-0.7-1.7-1c-0.4-0.2-0.8-0.5-1.1-0.7c-0.6-0.3-1.1-0.7-1.7-1
	c-0.4-0.2-0.7-0.4-1.1-0.7c-0.6-0.4-1.1-0.7-1.7-1.1c-0.4-0.3-0.9-0.5-1.3-0.8c-0.6-0.4-1.3-0.8-1.9-1.2c-0.4-0.2-0.7-0.4-1.1-0.6
	c-0.6-0.3-1.1-0.7-1.7-1c-0.6-0.3-1.1-0.7-1.7-1c-0.5-0.3-1-0.6-1.5-0.9c-0.7-0.4-1.4-0.8-2-1.2c-0.7-0.4-1.4-0.9-2.1-1.3
	c-0.7-0.4-1.4-0.8-2-1.2c-0.7-0.4-1.5-0.9-2.2-1.4c-0.9-0.6-1.9-1.1-2.8-1.7c-0.2-0.1-0.3-0.2-0.5-0.2c-0.1-0.2-0.1-0.4-0.2-0.6
	c-0.5-1.5-0.8-3-1-4.5c-0.1-1-0.2-1.9-0.2-2.9c0-0.1,0-0.3,0-0.4c0.1,0,0.1-0.1,0-0.1c0-0.2,0-0.5,0-0.7
	C308.3,70.8,308.3,70.7,308.2,70.7z"/>
<path class="st0" d="M345,72.7c-0.1,0-0.1,0-0.2,0c-0.1,0-0.2-0.1-0.3-0.1c-0.3,0-0.6,0-0.9,0c0,0-0.1,0-0.1,0
	c-0.1,0-0.1-0.1-0.2-0.1c-0.2,0-0.4,0-0.7,0c0,0-0.1,0-0.1,0c-0.1,0-0.1-0.1-0.2-0.1c-0.2,0-0.4,0-0.6,0c-0.3,0-0.6-0.1-0.9-0.1
	c-0.1,0-0.1,0-0.2-0.1c-0.2,0-0.3,0-0.5,0l0,0c0,0,0,0,0,0c-0.1,0-0.1-0.1-0.2-0.1c-0.2,0-0.4,0-0.6,0c-0.4,0-0.9-0.1-1.3-0.1
	c-0.2,0-0.4,0-0.6-0.1c-0.1,0-0.1-0.1-0.2-0.1c-0.2,0-0.4,0-0.5,0c0,0-0.1-0.1,0-0.1c0-0.1,0.1-0.2,0.2-0.3c1.8-2.9,3.6-5.9,5.4-8.8
	c0.4-0.7,0.8-1.3,1.2-2c0.4-0.7,0.8-1.3,1.3-2c0.2-0.4,0.5-0.8,0.7-1.1c0.3-0.5,0.7-1.1,1-1.6c0.2-0.4,0.5-0.8,0.7-1.2
	c0.3-0.5,0.7-1.1,1-1.6c0.2-0.4,0.5-0.8,0.7-1.2c0.3-0.4,0.5-0.8,0.8-1.2c0.3-0.5,0.6-1,0.9-1.4c0.3-0.4,0.5-0.8,0.8-1.2
	c0.2-0.4,0.5-0.8,0.7-1.2c0.2-0.4,0.5-0.8,0.7-1.2c0.3-0.5,0.6-1,0.9-1.5c0.2-0.4,0.5-0.8,0.7-1.2c0.2-0.4,0.4-0.7,0.7-1.1
	c0.2-0.4,0.5-0.8,0.8-1.2c0.2-0.4,0.4-0.7,0.7-1.1c0.3-0.5,0.6-1,0.9-1.5c0.2-0.3,0.4-0.7,0.6-1c0.2-0.3,0.4-0.6,0.6-0.8
	c0.2-0.3,0.5-0.5,0.9-0.6c0.1,0.1,0.2,0.2,0.3,0.3c0.2,0.2,0.5,0.3,0.8,0.5c0.4,0.3,0.9,0.5,1.3,0.8c0.6,0.4,1.2,0.7,1.8,1.1
	c0.6,0.3,1.1,0.7,1.7,1c0.5,0.3,1,0.6,1.5,0.9c0.8,0.5,1.5,0.9,2.3,1.4c0.3,0.2,0.5,0.3,0.8,0.4c-0.1,0.2-0.3,0.4-0.4,0.7
	c-0.2,0.3-0.3,0.6-0.5,0.8c-0.2,0.3-0.4,0.6-0.6,0.9c-0.3,0.5-0.6,1.1-1,1.6c-1,1.6-2,3.2-2.9,4.8c-0.4,0.6-0.7,1.2-1.1,1.8
	c-0.1,0.1-0.1,0.2-0.1,0.3c-0.1,0-0.1,0-0.2,0.1c-0.1,0.2-0.3,0.4-0.4,0.7c-0.2,0.4-0.5,0.7-0.7,1.1c-0.3,0.2-0.3,0.5-0.5,0.8
	c-0.2,0.3-0.3,0.6-0.5,0.8c-0.3,0.3-0.4,0.7-0.7,1.1c-0.4,0.6-0.7,1.2-1.1,1.8c0,0-0.1,0.1-0.1,0.1c-0.1,0.3-0.3,0.5-0.5,0.8
	c-0.1,0.2-0.2,0.3-0.3,0.5c-0.5,0.9-1.1,1.8-1.6,2.7c-1.3,2-2.6,4.1-3.8,6.1c-0.4,0.6-0.8,1.1-1.4,1.5c-0.8,0.6-1.7,1-2.7,1.2
	c-0.1,0-0.2,0-0.3,0C347.3,72.7,346.1,72.7,345,72.7z"/>
<path class="st0" d="M309.7,80.1c0.2,0,0.4,0.1,0.5,0.2c0.9,0.6,1.9,1.1,2.8,1.7c0.7,0.4,1.4,0.9,2.2,1.4c0.7,0.4,1.4,0.8,2,1.2
	c0.7,0.4,1.4,0.9,2.1,1.3c0.7,0.4,1.4,0.8,2,1.2c0.5,0.3,1,0.6,1.5,0.9c0.6,0.3,1.1,0.7,1.7,1c0.6,0.3,1.1,0.7,1.7,1
	c0.4,0.2,0.7,0.4,1.1,0.6c0.6,0.4,1.3,0.8,1.9,1.2c0.4,0.3,0.9,0.5,1.3,0.8c0.6,0.4,1.1,0.7,1.7,1.1c0.4,0.2,0.7,0.4,1.1,0.7
	c0.6,0.3,1.1,0.7,1.7,1c0.4,0.2,0.8,0.5,1.1,0.7c0.6,0.3,1.1,0.7,1.7,1c0.4,0.2,0.7,0.4,1.1,0.6c0.6,0.3,1.1,0.7,1.7,1
	c0.1,0.1,0.3,0.1,0.4,0.2c0,0,0.1,0,0.1-0.1c0.1,0.1,0.2,0.2,0.2,0.3c1.6,2.7,3.2,5.4,4.8,8.1c0.1,0.1,0.2,0.3,0.2,0.4
	c0.2,0,0.3-0.1,0.4-0.1c1.3-0.7,2.5-1.5,3.7-2.4c0.1-0.1,0.2-0.1,0.3-0.2c0.2,0,0.4,0.1,0.6,0.2c0.1,0.1,0.2,0.2,0.4,0.2
	c0.7,0.4,1.4,0.8,2,1.2c0.7,0.4,1.4,0.9,2.2,1.4c0.9,0.6,1.8,1.1,2.7,1.7c0.2,0.1,0.2,0.1,0.3,0c0.2-0.2,0.4-0.4,0.7-0.7
	c0.1-0.1,0.1-0.1,0.2-0.2c0,0,0.1,0,0.1,0c0,0,0.1,0.1,0.1,0.1c-0.3,0.3-0.7,0.7-1,1c-1.5,1.4-3.1,2.8-4.8,4
	c-0.5,0.4-1.1,0.7-1.7,1.1c-0.3,0.2-0.6,0.4-1,0.6c-0.1,0.1-0.3,0.2-0.5,0.3c-0.1,0.1-0.3,0.2-0.5,0.3c0,0-0.1,0-0.1,0.1
	c-0.1,0-0.1,0-0.2,0c0-0.1-0.1-0.2-0.2-0.2c-0.5-0.3-1-0.6-1.5-0.9c-0.7-0.4-1.4-0.8-2-1.2c-0.5-0.3-1-0.6-1.6-1
	c-0.6-0.3-1.1-0.7-1.7-1c-0.6-0.4-1.2-0.7-1.8-1.1c-0.3-0.2-0.6-0.4-1-0.6c-0.6-0.4-1.1-0.7-1.7-1.1c-0.5-0.3-1-0.6-1.5-0.9
	c-0.6-0.3-1.1-0.7-1.7-1c-0.4-0.2-0.7-0.4-1.1-0.7c-0.6-0.4-1.2-0.7-1.8-1.1c-0.4-0.2-0.7-0.4-1.1-0.6c-0.6-0.4-1.1-0.7-1.7-1.1
	c-0.4-0.2-0.7-0.4-1.1-0.6c-0.5-0.3-1.1-0.7-1.6-1c-0.6-0.3-1.1-0.7-1.7-1c-0.6-0.4-1.2-0.7-1.8-1.1c-0.3-0.2-0.6-0.4-0.9-0.5
	c-0.6-0.4-1.3-0.8-1.9-1.2c-0.3-0.2-0.5-0.3-0.8-0.5c-0.4-0.3-0.8-0.5-1.2-0.8c-0.1-0.1-0.2-0.1-0.3-0.1c0,0-0.1-0.1-0.1-0.1
	c-1.8-3-3.7-6.1-5.5-9.2c-1.4-2.3-2.5-4.7-3.4-7.3C309.8,80.4,309.7,80.2,309.7,80.1z"/>
<path class="st0" d="M247.7,91.1c-1.1,0-2.2,0.1-3.4,0.1c-1.4,0-2.7,0-4.1-0.3c-0.1,0-0.2-0.1-0.4-0.1c-0.3,0-0.5,0-0.8,0
	c-2.1-0.3-4.1-0.8-6.1-1.6c-0.6-0.2-1.2-0.4-1.7-0.7c-0.4-0.2-0.9-0.5-1.2-0.8c-0.1-0.1-0.2-0.1-0.3-0.2c-0.4,0.1-0.7,0.3-1,0.6
	c-0.6,0.6-1.2,1.3-1.7,2c-0.9,1.2-1.7,2.6-2.6,3.9c-3,4.9-5.8,10-8.2,15.3c-0.4,1-0.8,2-1.2,3c-0.1,0.4-0.3,0.9-0.2,1.4
	c0.8-0.1,1.4-0.4,1.9-1c0,0.2,0.1,0.2,0,0.3c-0.5,0.9-1.3,1.5-2.2,2c-0.4,0.2-0.8,0.1-1.1,0c-0.5-0.6-0.5-1.3-0.4-2.1
	c0.2-1.2,0.6-2.4,1-3.6c1.2-3.4,2.7-6.7,4.3-9.9c1-1.9,2-3.8,3-5.7c0.6-1,1.2-2.1,1.9-3c0.6-0.9,1.2-1.8,1.9-2.7
	c0.6-0.8,1.3-1.5,2.1-2.2c-0.3-0.4-0.7-0.7-1-1.1c-0.3-0.3-0.5-0.7-0.8-1.1c-1.3,0.2-2.5,0.6-3.7,0.9c-3.1,0.9-6,2.2-8.7,3.9
	c-1.6,1-3.1,2.2-4.4,3.8c-0.6,0.7-1,1.5-1.2,2.4c-0.2,0.8,0,1.4,0.5,2c0.4,0.5,0.9,0.8,1.5,1.1c0.3,0.1,0.6,0.3,0.9,0.4
	c-0.1,0.1-0.1,0.1-0.2,0.1c-0.3,0-0.7,0-1-0.1c-0.9-0.1-1.7-0.5-2.5-0.8c-0.3-0.1-0.6-0.3-0.7-0.6c-0.3-0.5-0.6-0.9-0.7-1.5
	c-0.1-0.8,0-1.6,0.2-2.4c0.1-0.3,0.2-0.6,0.4-0.9c0.5-1,1.2-2,2-2.8c0.4-0.3,0.8-0.6,1.2-0.9c0.6-0.5,1.2-1,1.9-1.3
	c0.4-0.2,0.8-0.5,1.2-0.7c2.3-1.1,4.7-2.1,7.2-2.8c1.6-0.4,3.2-0.8,4.8-1.1c0.1,0,0.2-0.1,0.2-0.1c0.2-0.3,0-0.5-0.1-0.7
	c-0.5-1.1-0.9-2.3-1.2-3.5c-0.2-1.1-0.4-2.2-0.4-3.3c-0.1-2.4,0.2-4.7,0.7-7.1c0.9-4.2,1.7-8.4,2.5-12.7c0.8-3.9,1.5-7.8,2.3-11.6
	c0.6-2.8,1.1-5.7,1.7-8.5c0-0.1,0.1-0.3,0.1-0.4c0.2,0,0.3-0.1,0.5-0.1c0.4,0,0.8,0,1.2,0c3.1,0,6.1,0,9.2-0.1c0.2,0,0.5,0,0.8,0
	c0,0.2,0,0.4,0,0.5c-0.7,3.6-1.4,7.3-2.2,10.9c-0.8,4.2-1.6,8.4-2.5,12.7c-0.6,3.1-1.2,6.2-1.8,9.4c-0.2,1.3-0.4,2.5-0.5,3.8
	c0,1.3,0.1,2.6,0.6,3.8c0.6,1.7,1.7,3.1,3.3,4c1.2,0.7,2.5,1.1,3.8,1.3c2.2,0.3,4.4,0.3,6.6-0.1c4.2-0.8,7.2-3.2,9.1-7
	c0.8-1.7,1.4-3.5,1.7-5.4c1.1-5.6,2.2-11.2,3.3-16.8c1-5,2-10,3-14.9c0.1-0.6,0.2-1.1,0.3-1.7c0-0.2,0.1-0.3,0.2-0.5
	c3.8,0,7.6,0,11.5,0c0.1,0.2,0.1,0.4,0,0.5c-0.5,2.8-1.1,5.6-1.7,8.4c-0.6,3.1-1.2,6.2-1.8,9.4c-0.7,3.4-1.3,6.8-2,10.2
	c-0.4,2.3-0.9,4.6-1.4,6.8c-0.7,3.3-1.8,6.5-3.5,9.5c-1.9,3.3-4.3,6.1-7.6,8.1c-1.5,1-3.1,1.7-4.9,2.3c-0.4,0.1-0.7,0.4-1,0.8
	c-2,3.3-3.9,6.6-5.5,10.2c-0.1,0.1-0.2,0.3-0.2,0.4c0,0,0,0.1-0.1,0.1c-0.1,0.1-0.1,0.3-0.2,0.4c-0.1,0.1-0.2,0.3,0,0.5
	c0.1-0.2,0.2-0.3,0.3-0.4c0.3-0.4,0.6-0.7,0.8-1.1c0.2-0.3,0.5-0.6,0.7-0.9c0.1-0.1,0.2-0.2,0.3-0.3c0.7-0.6,1.4-1.2,1.9-1.9
	c0-0.1,0.1-0.1,0.2-0.2c1.1-0.7,1.9-1.6,2.9-2.3c0.3-0.2,0.6-0.4,0.9-0.6c0.5-0.3,0.7-0.2,1.1,0.2c0.2,0.2,0.4,0.5,0.6,0.8
	c0.3,0.4,0.3,0.8-0.1,1.2c-1.6,2.3-3,4.8-4.1,7.3c-0.2,0.4-0.4,0.8-0.4,1.4c0.1,0,0.2-0.1,0.3-0.1c0.6-0.4,1.2-0.9,1.7-1.4
	c0.6-0.6,1.2-1.3,1.9-1.8c0.2-0.1,0.3-0.3,0.5-0.5c0.9-1,1.7-1.9,2.5-2.9c0.1-0.2,0.3-0.3,0.5-0.5c0,0.1,0.1,0.2,0.1,0.3
	c-0.1,0.2-0.2,0.3-0.3,0.5c-1.2,1.5-2.4,3-3.6,4.5c-0.8,1-1.7,1.9-2.7,2.8c-0.4,0.3-0.9,0.6-1.3,0.9c-0.4,0.3-0.8,0.2-1.2-0.2
	c-0.7-0.7-1.1-1.5-0.7-2.5c0.3-0.7,0.5-1.5,0.8-2.2c0.8-1.7,1.7-3.4,2.8-5c0.1-0.1,0.1-0.2,0.2-0.3c-0.4,0-0.6,0.3-0.9,0.5
	c-1.2,0.9-2.3,1.9-3.4,3c-1.2,1.2-2.2,2.5-3.2,3.8c-0.3,0.5-0.6,1-0.9,1.5c-0.1,0.2-0.2,0.5-0.3,0.7c-0.2,0.6-0.2,0.6,0.3,1.2
	c-0.2,0-0.3,0-0.5-0.1c-0.6-0.2-1-0.7-1.3-1.3c-0.2-0.3-0.1-0.6-0.1-0.9c0.1-0.5,0.2-1.1,0.4-1.6c0.3-0.9,0.6-1.8,1-2.7
	c0.1-0.2,0.2-0.5,0.3-0.9c-0.8,0.8-1.4,1.5-2,2.2c-1.3,1.4-2.6,2.6-4.2,3.8c-0.9,0.7-1.9,1.3-2.9,1.6c-0.1,0-0.3,0.1-0.4,0.1
	c-0.4,0-0.8,0-1.3,0c-0.6-0.1-1-0.5-1.3-1c-0.3-0.5-0.4-1-0.3-1.6c0.2-1,0.5-2,1-2.9c0.1-0.2,0.2-0.4,0.3-0.6
	c0.1-0.2,0.2-0.4,0.3-0.6c0.1-0.2,0.3-0.4,0.4-0.6c0.1-0.2,0.2-0.3,0.3-0.5c-0.1-0.1-0.1-0.1-0.2-0.2c0.1-0.1,0.2-0.3,0.3-0.3
	c0.7,0,0.9-0.6,1.2-1c0.3-0.3,0.5-0.6,0.8-0.8c0.5-0.3,0.9-0.8,1.4-1.1c0.8-0.6,1.7-1.1,2.6-1.5c0.4-0.1,0.9-0.2,1.3-0.3
	c0.4-0.1,0.7,0,1,0.3c0.3,0.3,0.6,0.5,0.8,0.8c0.2,0.2,0.2,0.5,0.2,0.7c-0.1,0.4-0.3,0.8-0.6,1.1c-0.4,0.5-0.8,1-1.3,1.5
	c-0.1,0.1-0.2,0.2-0.4,0.3c0-0.3,0.2-0.5,0.3-0.7c0.1-0.2,0.2-0.4,0.3-0.6c0.1-0.2,0.2-0.4,0.3-0.7c0.1-0.2,0.2-0.4,0.2-0.6
	c0.1-0.2,0.1-0.5,0.2-0.8c-0.2,0-0.3-0.1-0.4,0c-0.5,0.2-1.1,0.3-1.6,0.7c-0.6,0.4-1.3,0.8-1.6,1.5c-0.1,0.2-0.3,0.3-0.4,0.4
	c-0.2,0.2-0.4,0.3-0.6,0.5c-0.5,0.6-0.9,1.1-1.3,1.7c-0.4,0.6-0.7,1.2-1.1,1.8c-0.4,0.6-0.7,1.3-0.9,1.9c-0.2,0.4-0.2,0.8-0.3,1.2
	c-0.1,0.4,0.2,0.7,0.6,0.7c0.2,0,0.4,0,0.5-0.1c0.5-0.2,1.1-0.4,1.6-0.7c1.1-0.6,2-1.4,3-2.2c0.5-0.4,1.1-0.8,1.4-1.4
	c0.1-0.1,0.2-0.2,0.3-0.3c1.1-0.7,2-1.8,2.9-2.7c0.1-0.1,0.2-0.3,0.3-0.5c1.2-2.5,2.6-5,4-7.4c0.1-0.1,0.1-0.2,0.2-0.4
	c-0.4,0-0.7,0.1-1.1,0.1c-0.3,0.1-0.7-0.1-1,0.1l0,0c0,0,0,0,0,0c-0.4,0-0.8,0-1.2,0C248,91,247.9,91.1,247.7,91.1z"/>
<path class="st0" d="M144.6,90.2c-0.1-0.3-0.3-0.6-0.4-0.9C139,76.8,134,64.3,128.9,51.8c-0.1-0.3-0.1-0.6-0.4-0.8
	c-2.6,13.1-5.1,26.3-7.7,39.4c-3.6,0-7.2,0-10.7,0c-0.2,0-0.4,0-0.6,0c0-0.1,0-0.2,0-0.3c3.6-18.4,7.3-36.9,10.9-55.3
	c0.2,0,0.3-0.1,0.4-0.1c4,0,7.9,0,11.9,0c0.1,0,0.2,0,0.3,0c0.2,0.2,0.3,0.5,0.4,0.8c2.1,5.2,4.3,10.4,6.4,15.7
	c2.7,6.7,5.4,13.3,8.1,20c0.1,0.3,0.2,0.5,0.4,0.9c0.1-0.2,0.2-0.3,0.2-0.4c1.2-6.2,2.5-12.4,3.7-18.6c1.1-5.6,2.2-11.1,3.3-16.7
	c0.1-0.6,0.2-1.1,0.4-1.7c0.1,0,0.2-0.1,0.3-0.1c3.6,0,7.2,0,10.8,0c0.1,0,0.1,0,0.3,0.1c0,0.2,0,0.5-0.1,0.7
	c-1.3,6.3-2.5,12.6-3.8,18.9c-1.2,6.2-2.5,12.4-3.7,18.6c-1.1,5.5-2.2,11.1-3.3,16.6c0,0.2-0.1,0.5-0.2,0.7
	C152.1,90.2,148.4,90.2,144.6,90.2z"/>
<path class="st0" d="M221,56.6c-0.1,2.3-0.2,4.4-0.6,6.4c-0.4,2.6-1.1,5.2-1.9,7.8c-1.1,3.1-2.5,6-4.4,8.7c-2.6,3.7-5.9,6.6-10,8.6
	c-2.9,1.5-5.9,2.4-9.1,2.9c-2.7,0.4-5.4,0.5-8.1,0.3c-3.7-0.3-7.3-1.2-10.7-3c-0.5-0.2-0.8-0.6-1.4-0.7c-0.4-0.4-0.8-0.7-1.2-0.9
	c-0.5-0.3-0.7-0.8-1.2-1c-0.4-0.2-0.7-0.5-1-0.9c-0.2-0.2-0.3-0.4-0.4-0.6c-0.1-0.1-0.2-0.3-0.3-0.4c-1.4-1.5-2.4-3.3-3.2-5.1
	c-1-2.3-1.6-4.7-1.9-7.1c-0.2-2-0.3-4-0.1-6c0.5-6,2-11.8,4.9-17.2c0.5-0.9,0.9-1.8,1.6-2.6c0.5-0.6,0.9-1.2,1.4-1.9
	c0.2-0.3,0.4-0.6,0.6-0.9c0.1-0.1,0.1-0.2,0.2-0.2c0.7-0.7,1.4-1.4,2.1-2.1c0.1-0.1,0.2-0.2,0.3-0.4c0.1-0.1,0.2-0.3,0.4-0.4
	c0.4-0.1,0.6-0.5,0.9-0.7c0.3-0.2,0.6-0.3,0.8-0.6c0.3-0.3,0.6-0.5,0.9-0.7c0.9-0.6,1.9-1.1,2.9-1.6c2.9-1.5,6.1-2.4,9.3-2.8
	c2.3-0.3,4.6-0.4,6.9-0.3c3.3,0.2,6.5,0.8,9.5,2.1c5.8,2.5,9.6,6.7,11.5,12.7c0.7,2.1,1,4.2,1.2,6.4C221,55.3,221,56.1,221,56.6z
	 M209.1,58c0-0.2,0-0.4,0-0.6c0-2.2-0.3-4.3-1.2-6.4c-1.4-3.5-3.9-5.7-7.5-6.8c-2.1-0.6-4.3-0.7-6.5-0.5c-3.1,0.4-5.9,1.5-8.4,3.5
	c-2.3,1.9-3.9,4.1-5.2,6.8c-2.1,4.4-3,9.1-2.9,13.9c0.1,1.9,0.4,3.7,1.1,5.4c1.4,3.8,4.1,6.2,8,7.2c2.1,0.5,4.2,0.6,6.3,0.3
	c3.7-0.5,6.8-2,9.4-4.6c1.5-1.5,2.8-3.3,3.8-5.2C208.1,67,209,62.6,209.1,58z"/>
<path class="st0" d="M68.2,90.5c-0.7,0-1.4,0-2.1,0c-0.1,0-0.2-0.1-0.3-0.1c0.2-0.9,0.3-1.8,0.5-2.8c0.8-4,1.6-7.9,2.4-11.9
	c0.8-4.2,1.7-8.4,2.5-12.6c0.9-4.5,1.8-8.9,2.6-13.4c0.8-4.2,1.7-8.3,2.5-12.5c0.2-0.8,0.3-1.6,0.5-2.4c0.2-0.2,0.5-0.1,0.8-0.1
	c3.1,0,6.2,0,9.2,0c8.9,0,17.8,0,26.7-0.1c0.3,0,0.6,0,0.9,0c0,0.2,0,0.4,0,0.5c-0.6,2.9-1.2,5.8-1.7,8.6c0,0.2-0.1,0.3-0.2,0.5
	c-0.2,0-0.4,0-0.6,0c-7.3,0-14.7,0-22,0c-0.9,0-1.9,0-2.8,0c-0.2,0-0.4,0-0.5,0.1c-0.9,4.3-1.7,8.6-2.6,13c0.8,0.1,1.6,0,2.4,0
	c0.7,0,1.5,0,2.2,0c0.8,0,1.6,0,2.3,0c0.8,0,1.6,0,2.3,0c0.8,0,1.6,0,2.3,0c0.7,0,1.5,0,2.2,0c0.8,0,1.6,0,2.3,0c0.8,0,1.6,0,2.3,0
	c0.7,0,1.5,0,2.2,0c0.8,0,1.5,0,2.3,0c0.2,0.3,0.1,0.6,0,0.8c-0.5,2.6-1,5.2-1.5,7.8c-0.1,0.3-0.2,0.7-0.2,1c-3,0-5.9,0-8.9,0
	c-2.6,0-5.2,0-7.8,0c-0.3,0-0.5-0.1-0.8,0.1c-0.4,0-0.7,0-1.1,0c-1.5,0-3,0-4.6,0c-0.1,0.2-0.2,0.3-0.2,0.5c-0.7,3.7-1.4,7.3-2.1,11
	c-0.1,0.4-0.2,0.9-0.3,1.3c0,0.1,0,0.3,0,0.4c1,0,2,0,3,0c1,0,2,0,3,0c1,0,2,0,3,0c1,0,2,0,3,0c1,0,2,0,3,0c1,0,2,0,3,0c1,0,2,0,3,0
	c1,0,2,0,3,0c1,0,2,0,3,0c0,0.2,0,0.3,0,0.5c-0.6,2.9-1.1,5.7-1.7,8.6c0,0.2-0.1,0.5-0.2,0.7c-6.5,0-12.9,0-19.4,0
	c-0.2,0-0.3,0-0.5,0c-0.3,0-0.6,0-0.9,0c-2.3,0-4.5,0-6.8,0c-2.6,0-5.3,0-7.9,0C68.7,90.4,68.4,90.3,68.2,90.5z"/>
<path class="st0" d="M342.8,32.8c-0.1,0.2-0.2,0.4-0.3,0.6c-1.3,2.2-2.7,4.4-4,6.6c-0.5,0.8-1,1.6-1.5,2.4c-0.5,0.8-1,1.7-1.6,2.5
	c-0.5,0.9-1.1,1.7-1.6,2.6c-0.5,0.9-1,1.7-1.6,2.6c-0.5,0.8-1,1.6-1.5,2.4c-0.1,0.2-0.2,0.4-0.4,0.5c-0.1,0-0.2-0.1-0.4-0.1
	c-0.3-0.2-0.6-0.4-0.9-0.6c-0.6-0.4-1.3-0.8-1.9-1.2c-0.4-0.2-0.7-0.4-1.1-0.6c-0.6-0.3-1.1-0.7-1.7-1c-0.8-0.5-1.6-1-2.4-1.4
	c-1-0.6-2-1.2-2.9-1.8c-0.2-0.1-0.3-0.2-0.5-0.2c0.2-0.4,0.5-0.7,0.7-1.1c0.4-0.7,0.9-1.4,1.3-2.1c0.4-0.6,0.8-1.2,1.1-1.8
	c0.3-0.6,0.7-1.1,1-1.7c0.2-0.4,0.5-0.8,0.7-1.2c0.4-0.6,0.8-1.2,1.1-1.9c0.2-0.3,0.4-0.6,0.6-0.9c0.2-0.3,0.3-0.5,0.5-0.8
	c0.3-0.4,0.5-0.9,0.8-1.3c0.3-0.5,0.6-1,0.9-1.5c0.2-0.3,0.4-0.6,0.6-0.9c0.2-0.3,0.3-0.6,0.5-0.9c0.2-0.3,0.4-0.6,0.6-0.9
	c0.2-0.3,0.3-0.5,0.5-0.8c0.3-0.5,0.6-1,0.9-1.4c0.2-0.3,0.4-0.6,0.6-1c0,0,0.1-0.1,0.1-0.1c0,0.1,0.1,0.1,0.1,0.2
	c0.4,0.2,0.8,0.5,1.1,0.7c0.6,0.4,1.1,0.7,1.7,1.1c0.4,0.2,0.7,0.4,1.1,0.7c0.6,0.4,1.1,0.7,1.7,1.1c0.4,0.2,0.7,0.4,1.1,0.6
	c0.6,0.4,1.2,0.7,1.8,1.1c0.4,0.2,0.7,0.4,1.1,0.7c0.5,0.3,0.9,0.6,1.4,0.8C342.5,32.7,342.7,32.8,342.8,32.8z"/>
<path class="st0" d="M40.6,69.8c-0.1,0.1-0.2,0.3-0.2,0.4c-0.4,2.1-0.9,4.2-1.3,6.4c-0.8,3.9-1.6,7.8-2.3,11.7
	c-0.1,0.6-0.2,1.2-0.4,1.7c0,0.2-0.1,0.3-0.2,0.5c-0.8,0-1.6,0-2.3,0c-0.7,0-1.5,0-2.2,0c-0.8,0-1.6,0-2.3,0c-0.7,0-1.5,0-2.2,0
	c-0.8,0-1.5,0-2.3,0c0-0.6,10.6-54.5,10.9-55.5c0.2-0.2,0.5-0.1,0.7-0.1c1.9,0,3.8,0,5.7,0c2.3,0,4.5,0,6.8,0c7.6,0,15.2,0,22.8-0.1
	c0.3,0,0.6,0,0.9,0c0,0.1,0,0.2,0,0.3c-0.6,3-1.2,6.1-1.8,9.1c0,0.1-0.1,0.2-0.1,0.3c-2.8,0-5.6,0-8.3,0c-2.8,0-5.6,0-8.4,0
	c-2.8,0-5.6,0-8.4,0c-1,5.1-2,10.2-3,15.3c0.4,0.1,0.7,0.1,1.1,0.1c6.8,0,13.6,0,20.4,0c0.3,0,0.6-0.1,0.9,0.1
	c-0.1,0.6-0.2,1.1-0.3,1.7c-0.5,2.5-0.9,4.9-1.4,7.4c0,0.2-0.1,0.3-0.2,0.5c-0.2,0-0.4,0-0.6,0c-5,0-10,0-15,0c-2,0-4,0-5.9,0
	C41.1,69.7,40.8,69.6,40.6,69.8z"/>
<path class="st0" d="M298.4,94.8c-0.2,0-0.3,0-0.4-0.1c-0.4-0.2-0.7-0.5-1.1-0.7c-0.7-0.4-1.4-0.8-2.1-1.3c-0.6-0.3-1.1-0.7-1.7-1
	c-0.4-0.2-0.7-0.5-1.1-0.7c-0.6-0.4-1.2-0.7-1.8-1.1c-0.5-0.3-1-0.6-1.5-0.9c-0.6-0.3-1.1-0.7-1.7-1c-0.1-0.1-0.2-0.2-0.4-0.2
	c-0.1-0.8-0.3-1.5-0.4-2.3c-0.1-1-0.2-1.9-0.3-2.9c-0.1-1.3-0.1-2.6-0.1-3.9c0-1,0-2,0.1-2.9c0.2-2.2,0.5-4.4,1-6.6
	c0.5-2.2,1.2-4.4,2.1-6.6c0.3-0.7,0.6-1.5,1-2.2c0-0.1,0.1-0.1,0.1-0.2c0.1,0.1,0.1,0.1,0.2,0.2c0.4,0.3,0.8,0.5,1.3,0.8
	c0.7,0.4,1.4,0.8,2.1,1.3c0.5,0.3,1,0.6,1.6,1c0.7,0.5,1.5,0.9,2.2,1.4c0.2,0.1,0.3,0.2,0.5,0.1c-0.2,0.6-0.5,1.1-0.7,1.7
	c-0.8,2.1-1.4,4.3-1.8,6.5c-0.2,1.3-0.4,2.6-0.5,4c-0.1,2.2-0.1,4.5,0.2,6.7c0.5,3.7,1.5,7.2,3.1,10.5
	C298.3,94.6,298.4,94.7,298.4,94.8z"/>
<path class="st0" d="M360,109c0,0,0-0.1-0.1-0.1c0,0-0.1,0-0.1,0c-0.1,0-0.2,0.1-0.2,0.2c-0.2,0.2-0.4,0.4-0.7,0.7
	c-0.1,0.1-0.2,0.1-0.3,0c-0.9-0.6-1.8-1.1-2.7-1.7c-0.7-0.4-1.4-0.9-2.2-1.4c-0.7-0.4-1.4-0.8-2-1.2c-0.1-0.1-0.2-0.2-0.4-0.2
	c-0.2-0.1-0.3-0.2-0.6-0.2c0.3-0.2,0.6-0.5,0.9-0.7c2.8-2.4,5.2-5.1,7-8.3c1.9-3.2,3.2-6.6,3.9-10.2c0-0.1,0-0.1,0.1-0.2
	c0.1,0,0.2,0,0.3,0.1c0.6,0.4,1.3,0.8,1.9,1.2c0.5,0.3,1,0.6,1.6,0.9c0.7,0.4,1.3,0.8,2,1.2c0.7,0.4,1.3,0.8,2,1.2
	c0.1,0.1,0.3,0.1,0.4,0.1c-0.1,0.4-0.2,0.7-0.3,1.1c-0.8,2.8-2,5.6-3.4,8.2c-1.4,2.5-3.1,4.9-4.9,7.1c-0.6,0.7-1.2,1.4-1.8,2
	C360.2,108.8,360.1,108.9,360,109z"/>
<path class="st0" d="M342.8,32.8c-0.2,0-0.3-0.1-0.4-0.1c-0.5-0.3-0.9-0.6-1.4-0.8c-0.4-0.2-0.7-0.4-1.1-0.7
	c-0.6-0.4-1.2-0.7-1.8-1.1c-0.4-0.2-0.7-0.4-1.1-0.6c-0.6-0.4-1.1-0.7-1.7-1.1c-0.4-0.2-0.7-0.4-1.1-0.7c-0.6-0.4-1.1-0.7-1.7-1.1
	c-0.4-0.2-0.8-0.5-1.1-0.7c-0.1,0-0.1-0.1-0.1-0.2c0.2-0.4,0.4-0.7,0.6-1.1c0.3-0.4,0.5-0.9,0.8-1.3c0.2-0.3,0.4-0.6,0.6-0.9
	c0.2-0.3,0.4-0.6,0.6-1c0.3-0.4,0.5-0.9,0.8-1.3c0.3-0.4,0.5-0.9,0.8-1.3c0.3-0.4,0.5-0.9,0.8-1.3c0.2-0.3,0.4-0.6,0.6-0.9
	c0.3-0.6,0.7-1.1,1-1.7c0-0.1,0.1-0.1,0.1-0.2c0,0,0,0,0.1-0.1c0,0,0,0,0,0c0,0,0-0.1,0.1-0.1c0-0.1,0.1-0.2,0.1-0.2c0,0,0,0,0-0.1
	c0,0,0,0,0,0c0,0,0-0.1,0.1-0.1c0,0,0-0.1,0.1-0.1c0.4,0.1,0.7,0.3,1,0.5c0.1,0.1,0.3,0.2,0.4,0.3c0.7,0.4,1.3,0.8,2,1.2
	c0.6,0.4,1.2,0.7,1.8,1.1c0.6,0.3,1.1,0.7,1.7,1c0.5,0.3,1,0.6,1.5,0.9c0.8,0.5,1.5,1,2.3,1.4c0.2,0.1,0.4,0.3,0.7,0.4
	c0.1-0.2,0.2-0.2,0.4-0.2c-0.2,0.4-0.4,0.8-0.7,1.2c-0.8,1.3-1.5,2.6-2.3,3.9c-1.1,1.9-2.2,3.7-3.4,5.6c-0.3,0.5-0.5,0.9-0.8,1.4
	C342.9,32.7,342.9,32.7,342.8,32.8z"/>
<path class="st0" d="M358.3,61.1c0.1-0.2,0.2-0.3,0.3-0.5c0.2-0.2,0.3-0.5,0.5-0.8c0,0,0-0.1,0.1-0.1c0.4-0.6,0.7-1.2,1.1-1.8
	c0.2-0.4,0.4-0.7,0.7-1.1c0.2-0.3,0.3-0.6,0.5-0.8c0.2-0.3,0.3-0.6,0.5-0.8c0.2-0.4,0.5-0.8,0.7-1.1c0.1-0.2,0.3-0.4,0.4-0.7
	c0-0.1,0.1-0.1,0.2-0.1c0.3,0.5,0.7,0.9,1,1.4c0.7,1,1.4,2,2,3c0.9,1.5,1.6,3,2.3,4.6c1.1,2.5,1.9,5.1,2.5,7.7
	c0.3,1.3,0.5,2.5,0.7,3.8c0.2,1.4,0.3,2.9,0.4,4.3c0,0.1,0,0.3,0,0.4c-0.1,0-0.2,0-0.3-0.1c-0.5-0.3-0.9-0.6-1.4-0.9
	c-0.5-0.3-1-0.6-1.6-0.9c-0.5-0.3-1.1-0.7-1.6-1c-0.6-0.4-1.2-0.7-1.8-1.1c-0.7-0.4-1.4-0.9-2.1-1.3c-0.2-0.1-0.4-0.3-0.6-0.3
	c-0.1-0.4-0.2-0.9-0.3-1.3c-0.6-3-1.7-5.9-3.1-8.6c-0.3-0.6-0.6-1.2-0.9-1.8C358.4,61.2,358.4,61.1,358.3,61.1z"/>
<path class="st0" d="M318.7,46.2c0.2,0,0.4,0.1,0.5,0.2c1,0.6,2,1.2,2.9,1.8c0.8,0.5,1.6,1,2.4,1.4c0.6,0.3,1.1,0.7,1.7,1
	c0.4,0.2,0.7,0.4,1.1,0.6c0.6,0.4,1.3,0.8,1.9,1.2c0.3,0.2,0.6,0.4,0.9,0.6c0.1,0.1,0.2,0.1,0.4,0.1c-0.1,0.2-0.3,0.5-0.4,0.7
	c-1,1.7-2.1,3.4-3.1,5.1c-0.7,1.1-1.3,2.2-2,3.3c0,0,0,0.1-0.1,0.1c-0.2,0-0.3,0-0.4-0.1c-0.8-0.5-1.7-1-2.6-1.6
	c-1-0.6-2-1.2-3.1-1.9c-0.6-0.4-1.2-0.7-1.8-1.1c-0.8-0.5-1.6-1-2.4-1.4c-0.4-0.2-0.8-0.5-1.2-0.7c-0.2-0.1-0.4-0.2-0.6-0.2
	c0.1-0.4,0.4-0.7,0.6-1c0.5-0.8,1-1.6,1.5-2.4c0.6-0.9,1.1-1.7,1.7-2.6c0.4-0.6,0.7-1.1,1.1-1.7C318.1,47.1,318.4,46.6,318.7,46.2z"
	/>
<path class="st0" d="M350.2,20.6c-0.2,0-0.3,0-0.4,0.2c-0.3-0.1-0.5-0.2-0.7-0.4c-0.8-0.5-1.5-0.9-2.3-1.4c-0.5-0.3-1-0.6-1.5-0.9
	c-0.6-0.3-1.1-0.7-1.7-1c-0.6-0.4-1.2-0.7-1.8-1.1c-0.7-0.4-1.3-0.8-2-1.2c-0.1-0.1-0.3-0.2-0.4-0.3c-0.3-0.2-0.6-0.4-1-0.5
	c0.1-0.2,0.2-0.4,0.4-0.6c0.5-0.9,1-1.7,1.5-2.6c0.3-0.6,0.7-1.1,1-1.7c0.3-0.5,0.6-1.1,1-1.6c0.2-0.3,0.4-0.6,0.6-0.9
	c0.2-0.3,0.3-0.6,0.5-0.9c0.2-0.3,0.4-0.6,0.5-0.9c0.2-0.3,0.4-0.6,0.5-0.9c0.2-0.3,0.4-0.6,0.5-0.9c0,0,0.1,0,0.1-0.1
	c0,0.1,0.1,0.1,0.1,0.2c1,1.5,2,3,2.9,4.5c0.8,1.2,1.5,2.4,2.2,3.7c0.4,0.7,0.7,1.5,1,2.3c0.2,0.5,0.3,1,0.3,1.5
	c0.1,1.4-0.2,2.7-0.7,4C350.6,19.7,350.4,20.2,350.2,20.6z"/>
<path class="st0" d="M297.3,50.1c0.4-0.4,0.8-0.8,1.1-1.2c0.1-0.1,0.2-0.1,0.3-0.2c0.2-0.1,0.3-0.3,0.5-0.5c0.2-0.2,0.4-0.2,0.5-0.4
	c0-0.1,0.1-0.1,0.2-0.2c0.1-0.1,0.2-0.1,0.3-0.2c0,0,0.1-0.1,0.2-0.1c0.1,0,0.1-0.1,0.2-0.1c0.1-0.2,0.3-0.2,0.3-0.3
	c0.1-0.1,0.2-0.2,0.4-0.3c0.1-0.1,0.2-0.2,0.3-0.2c0.1,0,0.1-0.2,0.3-0.2c0.1,0,0.1-0.2,0.2-0.2c0.1,0,0.2-0.1,0.3-0.2
	c0.4-0.3,0.9-0.6,1.4-0.9c0.3-0.2,0.6-0.4,0.8-0.5c0.2-0.1,0.4-0.2,0.6-0.4c0.2-0.1,0.4-0.3,0.7-0.4c0,0,0.1,0,0.1-0.1
	c0.2-0.2,0.5-0.3,0.7-0.4c0.7-0.4,1.5-0.7,2.3-1.1c0.1-0.1,0.3-0.1,0.4-0.2c2.7-1.2,5.6-2.1,8.5-2.8c0.1,0,0.2,0,0.4-0.1
	c-0.1,0.1-0.2,0.2-0.2,0.3c-0.3,0.3-0.6,0.6-0.8,1c-0.2,0.1-0.3,0.4-0.5,0.6c-0.2,0.2-0.3,0.4-0.5,0.6c-0.1,0.1-0.2,0.3-0.3,0.4
	c-0.1,0.1-0.2,0.3-0.3,0.4c-0.1,0.2-0.2,0.3-0.4,0.5c-0.1,0.1-0.2,0.3-0.3,0.4c-0.2,0.3-0.5,0.6-0.7,0.9c-0.1,0.2-0.3,0.4-0.4,0.5
	c-0.2,0.2-0.3,0.4-0.4,0.5c-0.1,0.2-0.3,0.3-0.4,0.5c-0.1,0.2-0.3,0.4-0.4,0.5c-0.3,0.3-0.6,0.7-0.8,1c0,0.1-0.1,0.1-0.1,0.1
	c-0.2,0.3-0.5,0.5-0.7,0.8c-0.2,0.3-0.5,0.6-0.7,0.9c-0.2,0.3-0.5,0.5-0.7,0.8c-0.5,0.6-1.1,1.2-1.6,1.8c-0.6,0.4-1,1-1.5,1.5
	c-0.2,0.2-0.5,0.4-0.6,0.7c-0.1,0.2-0.3,0.4-0.6,0.5c-0.4-0.2-0.8-0.5-1.1-0.7c-0.7-0.4-1.3-0.8-2-1.2c-0.6-0.4-1.2-0.7-1.8-1.1
	c-0.8-0.5-1.5-0.9-2.3-1.4C297.4,50.2,297.3,50.2,297.3,50.1z"/>
<path class="st0" d="M297.5,49.9c0.1,0,0.2,0,0.2,0.1c0.8,0.5,1.6,1,2.4,1.4c0.6,0.4,1.2,0.8,1.8,1.1c0.7,0.4,1.4,0.8,2,1.2
	c0.4,0.2,0.8,0.5,1.2,0.7c0,0,0,0,0,0c-0.5,0.5-1,1.1-1.4,1.6c-0.6,0.7-1.2,1.4-1.7,2.1c-0.4,0.6-0.9,1.2-1.3,1.9
	c-0.1,0.2-0.2,0.4-0.3,0.5c-0.1,0.1-0.2,0.3-0.3,0.5c-0.1,0.2-0.2,0.4-0.3,0.5c-0.1,0.2-0.2,0.3-0.3,0.5c-0.5,0.9-0.9,1.8-1.3,2.7
	c0,0.1-0.1,0.2-0.1,0.2c-0.2,0-0.4,0-0.5-0.1c-0.7-0.5-1.5-0.9-2.2-1.4c-0.5-0.3-1-0.6-1.6-1c-0.7-0.4-1.4-0.8-2.1-1.3
	c-0.4-0.3-0.9-0.5-1.3-0.8c-0.1,0-0.1-0.1-0.2-0.2c0.1-0.2,0.2-0.4,0.3-0.6c0.2-0.4,0.4-0.8,0.6-1.1c0.1-0.2,0.3-0.5,0.4-0.7
	c0.6-1,1.2-1.9,1.8-2.9c0.3-0.4,0.6-0.8,0.9-1.2c0.2-0.3,0.5-0.5,0.6-0.8c0.2-0.1,0.3-0.4,0.5-0.5c0.2-0.3,0.5-0.5,0.7-0.9
	c0-0.1,0.1-0.1,0.1-0.1c0.2-0.1,0.3-0.3,0.5-0.5c0.1-0.2,0.3-0.3,0.5-0.5C297,50.2,297.2,50.1,297.5,49.9z"/>
<path class="st0" d="M362.7,73c0.2,0,0.4,0.2,0.6,0.3c0.7,0.4,1.4,0.8,2.1,1.3c0.6,0.4,1.2,0.7,1.8,1.1c0.5,0.3,1.1,0.7,1.6,1
	c0.5,0.3,1,0.6,1.6,0.9c0.5,0.3,1,0.6,1.4,0.9c0.1,0.1,0.2,0.1,0.3,0.1c0,0.1,0,0.2,0,0.3c0,1.2,0,2.5-0.1,3.7
	c-0.2,2.2-0.5,4.3-1,6.4c-0.1,0.4-0.2,0.8-0.3,1.1c0,0,0,0.1-0.1,0.1c-0.2,0-0.3,0-0.4-0.1c-0.7-0.4-1.3-0.8-2-1.2
	c-0.7-0.4-1.3-0.8-2-1.2c-0.5-0.3-1-0.6-1.6-0.9c-0.6-0.4-1.3-0.8-1.9-1.2c-0.1,0-0.2-0.1-0.3-0.1c0.1-0.4,0.1-0.8,0.2-1.2
	c0.2-1,0.3-2,0.4-3c0.1-1.6,0.1-3.3,0-4.9c-0.1-1-0.2-2-0.4-3C362.8,73.3,362.7,73.2,362.7,73z"/>
<path class="st0" d="M369.8,42.4c-0.3-0.1-0.5-0.3-0.8-0.4c-0.8-0.5-1.5-0.9-2.3-1.4c-0.5-0.3-1-0.6-1.5-0.9c-0.6-0.3-1.1-0.7-1.7-1
	c-0.6-0.4-1.2-0.7-1.8-1.1c-0.4-0.3-0.9-0.5-1.3-0.8c-0.3-0.2-0.5-0.3-0.8-0.5c-0.1-0.1-0.2-0.2-0.3-0.3c0.3-0.2,0.7-0.4,1.1-0.4
	c0.1,0,0.1,0,0.2-0.1c0,0,0,0,0.1,0c0.1,0,0.2,0,0.2-0.1c0,0,0.1,0,0.1,0c0.1,0,0.2,0,0.3-0.1c0.3,0,0.6,0,0.9,0c0.3,0,0.6,0,1,0
	c0.1,0.1,0.2,0.1,0.2,0.1c0.2,0,0.5,0,0.7,0c0,0.2,0.2,0.3,0.3,0.3c0.5,0.3,1,0.6,1.5,0.9c0.5,0.3,0.9,0.5,1.4,0.8
	c0.6,0.4,1.2,0.7,1.8,1.1c0.7,0.4,1.3,0.8,2,1.2c0.1,0.1,0.1,0.1,0.1,0.2c-0.1,0.2-0.2,0.5-0.4,0.7c-0.3,0.6-0.7,1.1-1,1.7
	C369.8,42.3,369.8,42.4,369.8,42.4z"/>
<path class="st0" d="M371.3,39.9c0-0.1,0-0.2-0.1-0.2c-0.7-0.4-1.3-0.8-2-1.2c-0.6-0.4-1.2-0.7-1.8-1.1c-0.5-0.3-0.9-0.5-1.4-0.8
	c-0.5-0.3-1-0.6-1.5-0.9c-0.1-0.1-0.3-0.2-0.3-0.3c0.2,0,0.4,0,0.6,0c0.2,0,0.4,0,0.6,0c0.1,0,0.1,0,0.2,0c0.1,0.1,0.2,0.1,0.3,0.1
	c0.3,0,0.7,0,1,0c0.4,0,0.9,0.1,1.3,0.1c0.1,0,0.1,0.1,0.2,0.1c0.2,0,0.3,0,0.5,0c0.2,0,0.5,0,0.7,0c0,0.1,0,0.2,0.1,0.3
	c0.2,0.1,0.3,0.2,0.5,0.3c0.8,0.5,1.6,1,2.3,1.4c0.1,0.1,0.2,0.2,0.2,0.3c-0.2,0.3-0.3,0.6-0.5,0.8c-0.2,0.4-0.4,0.7-0.7,1.1
	C371.3,39.8,371.3,39.9,371.3,39.9z"/>
<path class="st0" d="M226.9,103.8c-0.4,0.7-0.8,1.4-0.9,2.1c0,0.1-0.1,0.2-0.1,0.3c0,0.4,0.2,0.6,0.5,0.6c0.3,0,0.6,0,0.9-0.1
	c0.4-0.1,0.8-0.2,1.1-0.6c0.7-0.2,1.1-0.9,1.8-1.1c0.3-0.5,1-0.5,1.2-1.1c0.1-0.1,0.3-0.1,0.4-0.2c0.3-0.2,0.5-0.6,0.8-0.8
	c0.3-0.2,0.6-0.4,0.8-0.6c0.3-0.4,0.6-0.7,0.9-1c0.4-0.4,0.9-0.7,1.3-1.1c0,0,0.1,0,0.2,0c0,0.1,0.1,0.2,0,0.3
	c-0.1,0.1-0.2,0.2-0.2,0.3c-1.6,1.8-3.3,3.6-5.2,5.1c-0.9,0.7-1.8,1.3-2.8,1.8c-0.6,0.3-1.1,0.5-1.8,0.6c-0.6,0.1-1.1-0.1-1.6-0.5
	c-0.1-0.1-0.3-0.3-0.4-0.4c-0.3-0.3-0.5-0.6-0.5-1c0-0.6,0-1.2,0.2-1.8c0.2-0.8,0.6-1.6,1-2.4c0.4-0.7,0.9-1.4,1.4-2
	c0.5-0.7,1-1.4,1.6-1.9c0.2-0.2,0.4-0.4,0.7-0.5c0.4-0.2,0.6-0.5,1-0.8c1.1-0.7,2.2-1.3,3.4-1.7c0.9-0.2,1.7,0.1,2.3,0.8
	c0.2,0.3,0.3,0.7,0.2,1.1c-0.1,0.3-0.3,0.7-0.5,1c-0.7,1.1-1.6,2-2.5,2.8c-0.8,0.7-1.6,1.3-2.5,1.8
	C228.9,103.3,228,103.7,226.9,103.8z M234.3,96.3c-0.4,0-0.5,0.1-1.3,0.6c-2.1,1.4-4.8,4.4-5.5,6.2c0.2,0,0.3,0,0.4-0.1
	c0.4-0.2,0.9-0.5,1.3-0.8c1.9-1.4,3.5-3.1,4.8-5.1C234,96.9,234.2,96.6,234.3,96.3z"/>
<path class="st0" d="M372.5,37.9c0-0.1,0-0.2-0.2-0.3c-0.8-0.5-1.6-1-2.3-1.4c-0.2-0.1-0.3-0.2-0.5-0.3c-0.1-0.1-0.1-0.2-0.1-0.3
	c0.5,0,0.9,0.1,1.4,0.1c0.2,0,0.5,0,0.7,0.1c0.1,0,0.2,0.1,0.3,0.1c0.2,0,0.5,0,0.7,0c0.1,0,0.2,0,0.3,0c0.2,0.1,0.3,0,0.5,0
	c0.1,0,0.3,0,0.4,0c0,0.1,0,0.1,0,0.2C373.3,36.6,372.9,37.2,372.5,37.9z"/>
<path class="st0" d="M86.5,44.6c0.1-0.2,0.3-0.1,0.5-0.1c0.9,0,1.9,0,2.8,0c7.3,0,14.7,0,22,0c0.2,0,0.4,0,0.6,0
	c-0.2,0-0.4,0.1-0.5,0.1c-3.6,0-7.2,0-10.8,0c-4.7,0-9.3,0-14,0C86.9,44.6,86.7,44.6,86.5,44.6z"/>
<path class="st0" d="M40.6,69.8c0.2-0.2,0.5-0.1,0.8-0.1c2,0,4,0,5.9,0c5,0,10,0,15,0c0.2,0,0.4,0,0.6,0c-0.2,0.2-0.5,0.1-0.8,0.1
	c-2.3,0-4.6,0-6.9,0c-4.7,0-9.3,0-14,0C41,69.8,40.8,69.8,40.6,69.8z"/>
<path class="st0" d="M84.5,90.4c0.2,0,0.3,0,0.5,0c6.5,0,12.9,0,19.4,0c-0.2,0-0.4,0.1-0.6,0.1c-4,0-8,0-12,0c-2.1,0-4.3,0-6.4,0
	C85.1,90.5,84.8,90.5,84.5,90.4C84.6,90.5,84.5,90.4,84.5,90.4z"/>
<path class="st0" d="M87.8,67.4c0.2-0.2,0.5-0.1,0.8-0.1c2.6,0,5.2,0,7.8,0c3,0,5.9,0,8.9,0c-0.1,0.2-0.3,0.1-0.5,0.1
	c-1.6,0-3.2,0-4.8,0c-3.8,0-7.7,0-11.5,0C88.2,67.4,88,67.4,87.8,67.4z"/>
<path class="st0" d="M84.5,90.4C84.5,90.4,84.6,90.5,84.5,90.4c-0.2,0.1-0.4,0.1-0.6,0.1c-5,0-10.1,0-15.1,0c-0.2,0-0.4,0-0.6,0
	c0.2-0.2,0.5-0.1,0.8-0.1c2.6,0,5.3,0,7.9,0c2.3,0,4.5,0,6.8,0C84,90.4,84.3,90.4,84.5,90.4z"/>
<path class="st0" d="M144.6,90.2c3.8,0,7.6,0,11.4,0c-0.1,0-0.3,0.1-0.4,0.1c-3.5,0-6.9,0-10.4,0C144.9,90.3,144.7,90.4,144.6,90.2z
	"/>
<path class="st0" d="M345,72.7c1.1,0,2.3,0,3.4,0c-0.2,0-0.5,0.1-0.7,0.1c-0.9,0-1.8,0-2.6,0C345,72.7,345,72.7,345,72.7z"/>
<path class="st0" d="M364.7,35.3c-0.2,0-0.4,0-0.6,0c-0.2,0-0.5,0-0.7,0c-0.1,0-0.2,0-0.2-0.1C363.7,35.2,364.2,35.2,364.7,35.3
	C364.7,35.3,364.7,35.3,364.7,35.3z"/>
<path class="st0" d="M366.8,35.4c-0.3,0-0.7,0-1,0c-0.1,0-0.2,0-0.3-0.1C365.9,35.3,366.3,35.4,366.8,35.4z"/>
<path class="st0" d="M343.7,72.6c0.3,0,0.6,0,0.9,0c0.1,0,0.2,0,0.3,0.1C344.4,72.7,344,72.7,343.7,72.6z"/>
<path class="st0" d="M372.5,35.8c-0.2,0-0.5,0-0.7,0c-0.1,0-0.2,0-0.3-0.1C371.8,35.7,372.2,35.7,372.5,35.8z"/>
<path class="st0" d="M342.6,72.6c0.2,0,0.4,0,0.7,0c0.1,0,0.1,0,0.2,0.1C343.2,72.6,342.9,72.6,342.6,72.6z"/>
<path class="st0" d="M247.7,91.1c0.1,0,0.3-0.1,0.4-0.1c0.4,0,0.8,0,1.2,0C248.8,91,248.3,91.1,247.7,91.1z"/>
<path class="st0" d="M339.2,72.2c0.2,0,0.4,0,0.6,0c0.1,0,0.1,0,0.2,0.1C339.7,72.3,339.5,72.3,339.2,72.2z"/>
<path class="st0" d="M341.7,72.5c0.2,0,0.4,0,0.6,0c0.1,0,0.1,0,0.2,0.1C342.2,72.5,342,72.5,341.7,72.5z"/>
<path class="st0" d="M336.6,72c0.2,0,0.4,0,0.5,0c0.1,0,0.1,0,0.2,0.1C337.1,72.1,336.9,72,336.6,72z"/>
<path class="st0" d="M340.1,72.3c0.2,0,0.3,0,0.5,0c0.1,0,0.1,0,0.2,0.1C340.5,72.4,340.3,72.3,340.1,72.3z"/>
<path class="st0" d="M235.9,107.7c0.4,0,0.8,0,1.3,0C236.7,107.8,236.3,107.9,235.9,107.7z"/>
<path class="st0" d="M364.7,35.3C364.7,35.3,364.7,35.3,364.7,35.3c0.2,0,0.4,0,0.6,0C365.1,35.3,364.9,35.3,364.7,35.3z"/>
<path class="st0" d="M368.7,35.5c-0.2,0-0.3,0-0.5,0c-0.1,0-0.1,0-0.2-0.1C368.3,35.5,368.5,35.4,368.7,35.5z"/>
<path class="st0" d="M248.9,101.6c-0.1,0.1-0.2,0.3-0.3,0.4c-0.2-0.2-0.1-0.4,0-0.5C248.8,101.6,248.9,101.6,248.9,101.6z"/>
<path class="st0" d="M239.1,90.8c0.3,0,0.5,0,0.8,0c0.1,0,0.2,0.1,0.4,0.1C239.9,90.9,239.5,90.9,239.1,90.8z"/>
<path class="st0" d="M249.5,91c0.3-0.2,0.7-0.1,1-0.1C250.2,90.9,249.8,90.9,249.5,91z"/>
<path class="st0" d="M373.3,35.8c-0.2,0-0.3,0.1-0.5,0C372.9,35.8,373.1,35.8,373.3,35.8z"/>
<path class="st0" d="M308.6,71.7c0.1,0,0.1,0.1,0,0.1C308.6,71.8,308.6,71.8,308.6,71.7z"/>
<path class="st0" d="M361.3,35.2c-0.1,0.1-0.2,0.1-0.3,0.1C361.1,35.2,361.2,35.2,361.3,35.2z"/>
<path class="st0" d="M308.6,70.9c0.1,0,0.1,0.1,0,0.1C308.6,70.9,308.6,70.9,308.6,70.9z"/>
<path class="st0" d="M360.9,35.3c-0.1,0.1-0.2,0.1-0.2,0.1C360.7,35.3,360.8,35.3,360.9,35.3z"/>
<path class="st0" d="M65.8,90.4c0.1,0,0.2,0.1,0.3,0.1C66,90.5,65.8,90.6,65.8,90.4z"/>
<path class="st0" d="M248.8,101.1c0,0,0-0.1,0.1-0.1C248.9,101.1,248.8,101.1,248.8,101.1z"/>
<path class="st0" d="M360.6,35.4c0,0.1-0.1,0.1-0.2,0.1C360.4,35.4,360.5,35.4,360.6,35.4z"/>
<path class="st0" d="M236.5,99.9c0,0.1,0,0.2-0.2,0.2c-0.1-0.1-0.1-0.1-0.2-0.2c0.1-0.1,0.1-0.1,0.2-0.2
	C236.4,99.8,236.5,99.9,236.5,99.9z"/>
<path class="st0" d="M236.4,100.1c-0.1,0.1-0.1,0.2-0.2,0.1c-0.1-0.1-0.1-0.2,0-0.3C236.2,100,236.3,100,236.4,100.1z"/>
<path class="st0" d="M338,14.6C338,14.6,337.9,14.6,338,14.6C337.9,14.6,338,14.6,338,14.6z"/>
<path class="st0" d="M338.1,14.5C338,14.5,338,14.6,338.1,14.5C338,14.6,338,14.5,338.1,14.5z"/>
<path class="st0" d="M338.2,14.2C338.2,14.2,338.2,14.3,338.2,14.2C338.2,14.3,338.2,14.2,338.2,14.2z"/>
<path class="st0" d="M338.3,14.1C338.3,14.2,338.3,14.2,338.3,14.1C338.3,14.2,338.3,14.2,338.3,14.1z"/>
<path class="st0" d="M350.6,116.3C350.6,116.3,350.6,116.3,350.6,116.3C350.6,116.3,350.6,116.3,350.6,116.3z"/>
<path class="st0" d="M234.3,96.3c0,0.3-0.2,0.6-0.4,0.9c-1.3,2-2.9,3.7-4.8,5.1c-0.4,0.3-0.9,0.5-1.3,0.8c-0.1,0.1-0.2,0.1-0.4,0.1
	c0.8-1.8,3.5-4.8,5.5-6.2C233.7,96.4,233.8,96.3,234.3,96.3z"/>
</svg>
