<?xml version="1.0" encoding="utf-8"?>
<!-- Generator: Adobe Illustrator 27.3.1, SVG Export Plug-In . SVG Version: 6.00 Build 0)  -->
<svg version="1.1" id="Layer_1" xmlns="http://www.w3.org/2000/svg" xmlns:xlink="http://www.w3.org/1999/xlink" x="0px" y="0px"
	 viewBox="0 0 408.5 125" style="enable-background:new 0 0 408.5 125;" xml:space="preserve">
<style type="text/css">
	.st0{fill:#FFFFFF;}
	.st1{font-family:'StretchProRegular';}
	.st2{font-size:42.4148px;}
	.st3{fill-rule:evenodd;clip-rule:evenodd;fill:#FFFFFF;}
</style>
<text transform="matrix(1 0 0 1 7.0547 95.2178)" class="st0 st1 st2">SELMART</text>
<path class="st3" d="M367.8,72.5c10.5-2.4,16.4-10.3,16.8-25.6v-0.2v-0.5v-0.4V20.5c0,0-16.3,5-16.8,26.3V47l0,0.1v0.7v-1.3l0,7v3.1
	V72.5z M338.2,94.5c2.4-10.5,10.3-16.4,25.6-16.8h0.2h5.7h31.7c0,0-5,16.3-26.3,16.8h-0.2v0h-5.3h-12.3h-3.1H338.2z M341.9,43.2
	c-10.5,2.4-16.4,10.5-16.8,25.9v0.2v0.5v0.1v25.8c0,0,16.3-5.1,16.8-26.7v-0.2l0-0.1V68v1.6l0-7.1v-3.1V43.2z M370.6,21
	c-2.4,10.5-10.3,16.4-25.6,16.8h-0.2H339h-31.7c0,0,5-16.3,26.3-16.7h0.2v0h5.3h12.3h3.1H370.6z"/>
</svg>
