<?xml version="1.0" encoding="utf-8"?>
<!-- Generator: Adobe Illustrator 27.3.1, SVG Export Plug-In . SVG Version: 6.00 Build 0)  -->
<svg version="1.1" id="Layer_1" xmlns="http://www.w3.org/2000/svg" xmlns:xlink="http://www.w3.org/1999/xlink" x="0px" y="0px"
	 viewBox="0 0 408.5 125" style="enable-background:new 0 0 408.5 125;" xml:space="preserve">
<style type="text/css">
	.st0{fill:#FFFFFF;}
</style>
<path class="st0" d="M84.2,7.1c0.2,0,0.5,0.1,0.7,0.1c3.9,0.2,7.6,1.1,11.3,2.5c11.8,4.6,20.6,14.9,23.4,27.2
	c0.8,3.5,1.1,7.1,0.8,10.7c-0.9,13.4-8.6,24.5-19.1,30.5c-0.3,0.2-0.6,0.3-0.8,0.5c0.1,0.2,0.2,0.4,0.3,0.6
	c3.7,7.5,7.5,15,11.2,22.5c2.9,5.8,5.8,11.6,8.7,17.4c0.1,0.3,0.2,0.5,0.4,0.8c-16.3,0-32.5,0-48.8,0c-0.1,0-0.3-0.1-0.4-0.1
	c-0.5-0.1-1.1-0.1-1.6-0.2c-1.8-0.2-3.6-0.5-5.3-0.9c-7.8-2-14.4-6-19.6-12.1c-5.2-6-8.3-13-9.2-21c-0.4-3.4-0.3-6.9,0.3-10.3
	c0.9-5.4,2.9-10.4,6-14.9c3.4-5.1,7.8-9.1,13.1-12.1c0.3-0.1,0.5-0.2,0.8-0.5c-0.1-0.2-0.2-0.3-0.2-0.5c-0.5-1-1-2-1.5-3
	c-2-4-4-8-6-12c-0.1-0.3-0.2-0.6-0.5-0.8c-0.9,0-1.9,0-2.9,0c-1,0-1.9,0-2.9,0c-1,0-1.9,0-2.9,0c-0.9,0-1.9,0-2.8,0
	c-1,0-1.9,0-2.9,0s-1.9,0-2.9,0c-1,0-1.9,0-2.9,0c-0.1-0.2-0.2-0.4-0.3-0.5C24.2,25,21,18.7,17.9,12.4c-0.9-1.8-1.8-3.5-2.6-5.3
	C38.2,7.1,61.2,7.1,84.2,7.1z M58.4,53c-0.2,0.1-0.4,0.2-0.6,0.3c-9.2,5.2-16.1,14.9-16.8,26.9c-0.2,3.6,0.2,7.1,1.2,10.6
	c3.9,13.9,16.9,24,31.7,23.9c11.9-0.1,23.8,0,35.7,0c0.3,0,0.5,0,0.8,0c0.1,0,0.2,0,0.4-0.1c-7-14.1-14-28.1-20.9-42.1
	c-7-14-13.9-28-20.9-42c0.1-0.1,0.1-0.2,0.1-0.2c0.2-0.1,0.3-0.3,0.5-0.4c4.9-3.8,10.3-5,16.3-3.7c10.3,2.2,17.4,12.7,14.5,23.8
	c-1.2,4.7-3.9,8.4-7.9,11.2c-0.2,0.2-0.5,0.3-0.7,0.5c0.1,0.3,0.2,0.5,0.3,0.7c0.5,1,1,1.9,1.4,2.9c1.3,2.7,2.7,5.4,4,8.1
	c0.1,0.2,0.1,0.5,0.4,0.6c0.2-0.1,0.4-0.2,0.5-0.3c8.8-5.1,15.5-14.4,16.4-26c0.2-3.1,0-6.2-0.6-9.2c-2.4-11.2-10.7-20.4-21.5-24.1
	c-3.6-1.2-7.2-1.8-11-1.8c-18.5,0-37,0-55.6,0c-0.2,0-0.4,0-0.6,0c-0.1,0-0.3,0-0.3,0.1c0,0.1,0,0.1,0,0.2c2,4,4,8,6,12
	c0.1,0.2,0.3,0.5,0.4,0.7c0,0,0,0,0.1,0.1c0,0,0,0,0.1,0.1c0.2,0,0.6,0,0.9,0c6.1,0,12.3,0,18.4,0c0.3,0,0.6,0,0.9,0
	c0.3,0.5,36.3,72.5,36.7,73.5c0,0.1,0,0.2,0,0.3c-0.2,0-0.4,0-0.6,0c-3.8-0.1-7.6-0.2-11.3-0.3c-2.4-0.1-4.7-0.3-7.1-0.7
	c-2-0.3-4-0.8-5.8-1.6c-4.3-1.8-7.2-4.8-8.8-9.1c-0.8-2.1-1.3-4.3-1.4-6.6c-0.2-4.6,1.1-8.7,3.9-12.4c1.5-2,3.3-3.5,5.5-4.8
	c0.2-0.1,0.5-0.2,0.6-0.5C63,61.9,58.8,53.5,58.4,53z M77.1,32c0.3,0.7,11.9,24,12.2,24.5c5.3-3.1,8.4-11,4.7-18
	C90.1,31.3,81.9,29.9,77.1,32z M66.4,68.9c-1.4,0.5-3.1,2-4.3,3.6c-1.5,2-2.4,4.3-2.5,6.9c-0.2,5.2,1.9,9.3,6.4,12.1
	c4,2.5,9.1,2.2,12,0.5C74.1,84.4,70.3,76.7,66.4,68.9z"/>
<path class="st0" d="M268.9,54.7c0.9,1.4,1.8,2.9,2.8,4.4c0.9,1.5,1.8,2.9,2.7,4.4c0.9,1.5,1.8,3,2.8,4.5c0.1-0.2,0.1-0.2,0.1-0.3
	c0-0.2,0-0.4,0-0.6c0-3.9,0-7.8,0-11.6c0-0.2,0-0.5,0-0.8c0.5-0.1,0.9,0,1.3,0c0.4,0,0.8,0,1.2,0c0.4,0,0.9,0,1.3,0
	c0,0.1,0,0.3,0,0.4c0.1,2,0,18.9-0.1,19.5c0,0-0.1,0.1-0.2,0.1c-1.3,0-2.6,0-3.9,0c-0.3-0.2-0.4-0.4-0.5-0.7
	c-2.6-4.2-5.2-8.4-7.9-12.6c-0.1-0.2-0.3-0.4-0.5-0.7c-0.1,0.2-0.1,0.3-0.1,0.3c0,0.2,0,0.4,0,0.6c0,4,0,8.1,0,12.1
	c0,0.3,0,0.6,0,0.8c-0.1,0-0.2,0.1-0.3,0.1c-1.2,0-2.3,0-3.5,0c0,0-0.1,0-0.2-0.1c0-0.1,0-0.2-0.1-0.4c0-0.2,0-0.3,0-0.5
	c0-6.1,0-12.1,0-18.2c0-0.3,0-0.6,0.1-0.8C264.8,54.6,267.3,54.6,268.9,54.7z"/>
<path class="st0" d="M355.1,54.7c0.2,0,0.4,0,0.6,0c2.3,0,4.6,0,6.9,0c1,0,2,0.1,3,0.3c0.6,0.1,1.2,0.3,1.7,0.5
	c1.6,0.7,2.6,1.9,3.1,3.6c0.4,1.4,0.4,2.8,0.1,4.2c-0.4,1.7-1.4,2.8-2.9,3.4c-0.4,0.1-0.7,0.3-1.1,0.4c0,0.2,0.1,0.3,0.2,0.3
	c0.7,0.5,1.3,1.2,1.7,1.9c1,1.6,2,3.2,3.1,4.9c0.1,0.1,0.1,0.3,0.2,0.4c-0.5,0.1-4,0.1-4.8,0c-0.1-0.2-0.2-0.4-0.4-0.6
	c-0.6-1-1.2-2.1-1.9-3.1c-0.3-0.5-0.6-1-1-1.4c-0.7-0.9-1.6-1.3-2.8-1.3c-0.5,0-1,0-1.5,0c-0.2,0.3-0.1,0.5-0.1,0.7
	c0,1.6,0,3.3,0,4.9c0,0.2,0,0.5,0,0.7c-0.5,0.1-0.9,0-1.4,0c-0.4,0-0.9,0-1.3,0c-0.5,0-0.9,0-1.4,0c0-0.2,0-0.4,0-0.6
	C354.9,67.5,355,55.3,355.1,54.7z M359.3,64.5c0.1,0,0.1,0.1,0.2,0.1c1.4,0,2.7,0,4.1,0c0.4,0,0.9-0.2,1.3-0.3
	c0.7-0.3,1.1-0.8,1.3-1.5c0.2-0.5,0.2-1.1,0.1-1.6c-0.1-1.2-0.7-2-1.8-2.3c-0.5-0.2-1-0.2-1.6-0.2c-1.1,0-2.1,0-3.2,0
	c-0.1,0-0.3,0-0.4,0c0,0.1,0,0.2,0,0.3c0,1.8,0,3.7,0,5.5C359.2,64.3,359.3,64.4,359.3,64.5z"/>
<path class="st0" d="M198.6,69.7c0.1-0.1,0.3-0.1,0.4-0.2c1.2-0.2,2.5-0.6,3.7-0.8c0.1,0.1,0.1,0.2,0.2,0.3c0.3,0.9,1,1.5,1.8,1.9
	c0.5,0.3,1.1,0.4,1.6,0.5c1,0.1,2,0.2,3-0.1c0.5-0.1,0.9-0.3,1.3-0.6c1-0.8,1-2,0.1-2.8c-0.3-0.3-0.7-0.5-1.1-0.7
	c-0.8-0.3-1.6-0.6-2.4-0.8c-1.1-0.3-2.3-0.7-3.3-1.1c-0.8-0.4-1.6-0.8-2.4-1.3c-0.9-0.7-1.5-1.5-1.8-2.6c-0.6-2.3,0-5.2,3.1-6.5
	c0.3-0.1,0.6-0.3,0.9-0.3c2.4-0.7,4.8-0.6,7.2,0.3c0.9,0.3,1.8,0.9,2.5,1.6c0.8,0.8,1.3,1.8,1.6,2.9c0,0.1,0,0.2,0,0.3
	c-1.4,0.3-2.7,0.5-4.1,0.7c-0.1-0.2-0.1-0.3-0.2-0.4c-0.3-0.8-0.8-1.5-1.6-1.8c-1.3-0.6-2.6-0.6-3.9-0.2c-0.6,0.2-1.1,0.6-1.4,1.3
	c-0.2,0.8-0.1,1.5,0.5,2c0.3,0.3,0.7,0.5,1.2,0.7c0.8,0.3,1.6,0.6,2.4,0.8c1,0.3,2,0.6,3,1c0.6,0.2,1.2,0.5,1.8,0.8
	c0.4,0.2,0.7,0.4,1,0.7c1.5,1.2,2.1,2.8,1.9,4.7c-0.2,1.8-1.2,3.1-2.7,4c-0.8,0.5-1.6,0.8-2.5,0.9c-2.3,0.4-4.6,0.3-6.9-0.4
	c-1.1-0.3-2.1-0.8-2.9-1.6C199.6,72,198.9,71,198.6,69.7z"/>
<path class="st0" d="M326.4,54.7c0,0.2,0,0.4,0,0.6c0,4,0,8,0,12c0,1-0.1,2-0.5,2.9c-0.6,1.9-1.8,3.2-3.7,4c-1,0.4-2,0.7-3.1,0.8
	c-1.3,0.1-2.7,0.1-4-0.1c-0.7-0.1-1.4-0.3-2.1-0.6c-2.2-1-3.5-2.7-4-5c-0.2-0.7-0.2-1.5-0.2-2.3c0-3.9,0-7.7,0-11.6
	c0-0.2,0-0.5,0-0.7c0.5-0.1,1,0,1.4,0c0.4,0,0.9,0,1.3,0c0.5,0,0.9,0,1.4,0c0.1,0.3,0.1,0.5,0.1,0.8c0,2.8,0,5.6,0,8.4
	c0,1,0,2.1,0,3.1c0,0.5,0.1,0.9,0.2,1.4c0.3,1.5,1.2,2.4,2.7,2.8c1.1,0.3,2.3,0.3,3.4,0c1.5-0.4,2.3-1.3,2.7-2.8
	c0.1-0.4,0.1-0.9,0.2-1.3c0-0.7,0-1.3,0-2c0-3.2,0-6.4,0-9.6c0-0.2,0-0.5,0-0.8c0.7-0.1,1.4-0.1,2.1-0.1
	C325.1,54.7,325.8,54.6,326.4,54.7z"/>
<path class="st0" d="M239,61.2c-1.4,0.2-2.8,0.5-4.2,0.7c-0.1-0.3-0.2-0.5-0.3-0.7c-0.7-1.5-1.7-2.5-3.3-3c-1.1-0.3-2.2-0.3-3.3,0
	c-1.2,0.3-2.2,1.1-2.9,2.2c-0.4,0.7-0.7,1.5-0.9,2.3c-0.3,1.6-0.3,3.3,0.2,4.9c0.1,0.4,0.3,0.8,0.5,1.1c0.7,1.4,1.9,2.3,3.4,2.6
	c1.1,0.3,2.3,0.2,3.4-0.1c1.4-0.4,2.4-1.3,3-2.6c0.1-0.2,0.2-0.5,0.4-0.8c0.1,0,0.3,0,0.5,0c1.1,0.2,2.3,0.4,3.4,0.6
	c0.1,0,0.2,0.1,0.3,0.1c0.1,0.2,0,0.4-0.1,0.5c-1,2.9-3,4.9-6,5.7c-2.2,0.6-4.3,0.6-6.5,0.1c-3.2-0.9-5.3-3-6.3-6.2
	c-0.5-1.6-0.6-3.3-0.5-5c0.1-1.2,0.3-2.3,0.7-3.4c1.2-3.1,3.4-5,6.6-5.7c2-0.4,4.1-0.3,6,0.3c3,1,4.9,3.1,5.8,6.1
	C239,60.9,239,61.1,239,61.2z"/>
<path class="st0" d="M350,74.6c-0.5,0.1-3.4,0.1-4.4,0.1c-0.1-0.1-0.1-0.3-0.2-0.4c-0.3-0.9-0.6-1.9-0.9-2.8
	c-0.1-0.2-0.1-0.4-0.2-0.6c-0.7-0.1-7.5-0.1-8.1,0c-0.5,1.2-0.8,2.5-1.3,3.7c-0.6,0.1-3.7,0.1-4.3,0c0-0.1,0-0.2,0.1-0.3
	c2.3-6.5,4.7-13,7-19.6c1.8,0,3.5,0,5.2,0c0.8,2.2,1.6,4.4,2.4,6.6c0.8,2.2,1.6,4.4,2.4,6.6C348.4,70.1,349.2,72.3,350,74.6z
	 M343.1,67.3c0-0.2,0-0.3-0.1-0.3c-0.9-2.7-1.8-5.4-2.7-8.1c0,0,0,0,0-0.1c0,0,0,0-0.1,0c0,0.1-0.1,0.2-0.1,0.3
	c-0.9,2.6-1.7,5.2-2.6,7.9c0,0.1,0,0.3,0,0.4c1.8,0,3.6,0,5.4,0C342.9,67.3,343,67.3,343.1,67.3z"/>
<path class="st0" d="M248.6,71.1c3.3,0,6.6,0,9.8,0c0.1,0.1,0.1,0.1,0.1,0.1c0.1,1.1,0,2.2,0,3.3c-0.2,0-0.3,0.1-0.4,0.1
	c-0.2,0-0.4,0-0.6,0c-4.1,0-8.2,0-12.3,0c-0.3,0-0.6,0-0.9,0c0-0.2-0.1-0.3-0.1-0.4c0-0.2,0-0.3,0-0.5c0-6.1,0-12.1,0-18.2
	c0-0.3,0-0.5,0.1-0.8c0.1,0,0.3,0,0.4,0c3.6-0.1,12.5,0,13.3,0.1c0.1,0.3,0,0.7,0.1,1.1c0,0.4,0,0.8,0,1.2c0,0.4,0,0.7,0,1.1
	c-0.3,0.1-0.5,0.1-0.8,0.1c-1.9,0-3.7,0-5.6,0c-0.8,0-1.6,0-2.4,0c-0.2,0-0.5,0-0.7,0c-0.1,0.8,0,1.5-0.1,2.3c0,0.8,0,1.5,0,2.3
	c0.3,0.1,0.6,0.1,0.8,0.1c2.3,0,4.7,0,7,0c0.2,0,0.5-0.1,0.7,0.1c0.1,0.7,0.1,2.9,0,3.4c-0.5,0.1-1.1,0-1.6,0c-0.6,0-1.2,0-1.7,0
	c-0.6,0-1.1,0-1.7,0c-0.6,0-1.2,0-1.7,0c-0.6,0-1.1,0-1.7,0c-0.1,0.5-0.1,1-0.1,1.5c0,0.5,0,1.1,0,1.6
	C248.6,70,248.6,70.5,248.6,71.1z"/>
<path class="st0" d="M387.6,54.7c0.7-0.1,4-0.1,4.5,0c0.1,0.2-0.1,0.4-0.2,0.6c-0.9,1.6-1.9,3.3-2.8,4.9c-1.3,2.2-2.5,4.4-3.8,6.6
	c-0.2,0.4-0.3,0.7-0.3,1.2c0,1.9,0,3.9,0,5.8c0,0.2,0,0.5-0.1,0.7c-0.1,0-0.1,0.1-0.2,0.1c-1.2,0-2.4,0-3.5,0c-0.1,0-0.2,0-0.3,0
	c-0.2-0.2-0.1-0.5-0.1-0.8c0-1.9,0-3.9,0-5.8c0-0.5-0.1-0.8-0.3-1.2c-2.2-3.8-4.3-7.5-6.5-11.3c-0.1-0.2-0.3-0.5-0.4-0.7
	c0.5-0.1,3.5-0.1,4.6,0c0.4,0.7,0.8,1.4,1.2,2.2c0.4,0.7,0.8,1.5,1.2,2.2c0.4,0.7,0.7,1.4,1.1,2.1c0.4,0.7,0.8,1.5,1.1,2.2
	c0.3,0,0.3-0.2,0.4-0.4c1.3-2.5,2.6-5,3.9-7.5C387.2,55.3,387.4,55,387.6,54.7z"/>
<path class="st0" d="M297.2,74.6c-0.1,0-0.2,0-0.3,0c-1.2,0-2.4,0-3.5,0c-0.1,0-0.1,0-0.2-0.1c-0.1-0.3-0.1-0.5-0.1-0.8
	c0-4.8,0-9.7,0-14.5c0-0.3,0.1-0.6-0.1-0.8c-0.2-0.1-0.5-0.1-0.8-0.1c-1.6,0-3.3,0-4.9,0c-0.2,0-0.5,0-0.7-0.1
	c0-0.1-0.1-0.1-0.1-0.2c0-1,0-2.1,0-3.1c0-0.1,0-0.1,0.1-0.2c0.1,0,0.2,0,0.3,0c5.6,0,11.3,0,16.9,0c0.2,0.6,0.1,1.2,0.1,1.8
	c0,0.6,0,1.1,0,1.7c-0.3,0.2-0.5,0.1-0.8,0.1c-1.7,0-3.3,0-5,0c-0.2,0-0.5-0.1-0.7,0.1c-0.1,0.3-0.1,0.5-0.1,0.8c0,4.8,0,9.7,0,14.5
	C297.3,74,297.3,74.3,297.2,74.6z"/>
<path class="st0" d="M162.5,74.6c-0.8,0-1.6,0-2.4,0c-0.2-0.3-0.1-0.5-0.1-0.8c0-2.4,0-4.8,0-7.3c0-0.2,0-0.5,0-0.8
	c-0.2,0-0.4,0-0.5,0c-4.4-0.1-10.3,0-11,0.1c-0.1,0.2-0.1,0.5-0.1,0.7c0,2.4,0,4.8,0,7.3c0,0.2,0.1,0.5-0.1,0.7
	c-0.5,0.1-1.7,0.1-2.4,0c0-0.1-0.1-0.3-0.1-0.4c0-0.2,0-0.3,0-0.5c0-6,0-12.1,0-18.1c0-0.3,0-0.5,0-0.8c0.5-0.1,1.5-0.2,2.4-0.1
	c0.2,0.2,0.1,0.5,0.1,0.7c0,2.4,0,4.8,0,7.2c0,0.3,0,0.5,0,0.7c0.3,0.2,0.5,0.1,0.8,0.1c2.2,0,4.4,0,6.7,0c1.1,0,2.2,0,3.3,0
	c0.2,0,0.5,0,0.7,0c0.2-0.3,0.1-0.5,0.1-0.8c0-2.4,0-4.8,0-7.2c0-0.3,0-0.5,0-0.7c0.5-0.1,1.4-0.2,2.5-0.1c0,0.1,0.1,0.2,0.1,0.4
	c0,0.2,0,0.3,0,0.5c0,6.1,0,12.1,0,18.2C162.6,74,162.6,74.3,162.5,74.6z"/>
<path class="st0" d="M172.9,63.4c0.9,0.1,1.7,0,2.4,0c0.8,0,1.6,0,2.4,0c0.8,0,1.6,0,2.4,0c0.8,0,1.6,0,2.4,0c0.1,0.7,0.1,1.4,0,2.1
	c-0.3,0.2-0.5,0.1-0.8,0.1c-2.7,0-5.3,0-8,0c-0.2,0-0.5,0-0.8,0c-0.1,0.7,0,1.5-0.1,2.2c0,0.7,0,1.5,0,2.2c0,0.7,0,1.4,0,2.1
	c0.3,0.1,0.5,0.1,0.8,0.1c3.1,0,6.1,0,9.2,0c0.3,0,0.6,0,0.8,0c0.2,0.4,0.1,0.7,0.1,1.1c0,0.4,0,0.7,0,1.1c-0.2,0-0.4,0-0.6,0
	c-6.1,0.1-12.2,0-12.7-0.1c0,0,0,0,0-0.1c0,0,0,0,0-0.1c0-0.2,0-0.4,0-0.6c0-6.3,0-12.6,0-18.9c0,0,0-0.1,0-0.1c0,0,0,0,0.1-0.1
	c0.1,0,0.3,0,0.5,0c5.2-0.1,12,0,12.5,0.1c0.1,0.5,0.1,1.4,0,2.1c-0.1,0.2-0.3,0.1-0.5,0.1c-1.3,0-2.6,0-4,0c-1.8,0-3.5,0-5.3,0
	c-0.2,0-0.5,0-0.8,0c-0.1,0.8,0,1.5-0.1,2.2c0,0.7,0,1.4,0,2.1C172.9,62,172.9,62.7,172.9,63.4z"/>
<path class="st0" d="M129.9,57c-0.7-0.1-1.3,0-1.9-0.1c-0.6,0-1.2,0-1.7,0c-0.6,0-1.2,0-1.8,0c-0.6,0-1.1,0-1.7,0
	c-0.2-0.5-0.2-1.6,0-2.2c0.1,0,0.1-0.1,0.2-0.1c5.5,0,11,0,16.5,0c0.1,0,0.1,0,0.2,0.1c0.1,0.5,0.1,1.5,0,2.1
	c-0.2,0.2-0.4,0.1-0.7,0.1c-1.9,0-3.8,0-5.7,0c-0.3,0-0.5,0-0.8,0c0,0.2-0.1,0.3-0.1,0.4c0,0.2,0,0.4,0,0.6c0,5.2,0,10.5,0,15.7
	c0,0.3,0,0.5,0,0.8c-0.6,0.1-1.8,0.1-2.5,0c-0.1-0.3-0.1-0.5-0.1-0.8c0-4.7,0-9.4,0-14.1c0-0.7,0-1.4,0-2.1
	C129.9,57.4,129.9,57.3,129.9,57z"/>
</svg>
